<!DOCTYPE svg PUBLIC "-//W3C//DTD SVG 1.1//EN" "http://www.w3.org/Graphics/SVG/1.1/DTD/svg11.dtd">
<!-- Uploaded to: SVG Repo, www.svgrepo.com, Transformed by: SVG Repo Mixer Tools -->
<svg fill="#d4d4d4" height="800px" width="800px" version="1.1" id="Layer_1" xmlns="http://www.w3.org/2000/svg" xmlns:xlink="http://www.w3.org/1999/xlink" viewBox="0 0 512 512" xml:space="preserve" stroke="#d4d4d4">
<g id="SVGRepo_bgCarrier" stroke-width="0"/>
<g id="SVGRepo_tracerCarrier" stroke-linecap="round" stroke-linejoin="round"/>
<g id="SVGRepo_iconCarrier"> <g> <g> <path d="M512,0.001l-32.51,12.536c-3.055,1.178-72.244,28.34-143.57,95.586l-9.216-9.216l-65.158,65.158l-56.417,29.893 L35.455,363.633l-13.605-13.605L0,371.877l13.605,13.605l112.912,112.913l0.001-0.001l13.605,13.605l21.849-21.849l-13.605-13.605 l169.674-169.674l29.894-56.416l65.159-65.159l-9.216-9.216c67.244-71.323,94.408-140.515,95.586-143.569L512,0.001z M126.518,454.696l-69.214-69.214l157.109-157.109l69.214,69.214L126.518,454.696z M301.615,271.876l-61.491-61.491l27.853-14.758 l24.198,24.199l24.198,24.198L301.615,271.876z M335.369,219.321l-42.69-42.691l34.024-34.024l27.647,27.646l15.044,15.045 L335.369,219.321z M382.018,154.221l-24.236-24.236c34.108-31.998,67.944-54.394,92.934-68.669 C436.469,86.263,414.094,120.048,382.018,154.221z"/> </g> </g> </g>
</svg>