<?xml version="1.0" encoding="UTF-8"?>
<svg id="Layer_1" data-name="Layer 1" xmlns="http://www.w3.org/2000/svg" viewBox="0 0 389.47 104.01">
  <defs>
    <style>
      .cls-1 {
        opacity: .2;
      }

      .cls-1, .cls-2, .cls-3 {
        fill: #fff;
      }

      .cls-4 {
        fill: none;
        stroke-width: 2px;
      }

      .cls-4, .cls-3 {
        opacity: .7;
        stroke: #fff;
        stroke-miterlimit: 10;
      }

      .cls-2 {
        opacity: .8;
      }

      .cls-3 {
        stroke-width: 3px;
      }
    </style>
  </defs>
  <text/>
  <polygon class="cls-1" points="1 29.28 34.48 1 225.41 1 218.92 9.58 300.11 9.58 306.64 1 388.47 1 388.47 77.25 359.24 103.01 129.62 103.01 129.62 96.02 1 96.24 1 29.28"/>
  <polyline class="cls-4" points="37.37 6 7.01 31.72 7.01 59.4"/>
  <polyline class="cls-4" points="357.14 97.8 383.42 74.7 383.42 36.48"/>
  <line class="cls-3" x1="1.71" y1="100.34" x2="127.57" y2="100.34"/>
  <polygon class="cls-2" points="299.68 8.21 294.58 8.19 298.69 2.44 303.82 2.44 299.68 8.21"/>
  <polygon class="cls-2" points="292.65 8.21 287.56 8.19 291.66 2.44 296.79 2.44 292.65 8.21"/>
  <polygon class="cls-2" points="285.98 8.21 280.88 8.19 284.99 2.44 290.11 2.44 285.98 8.21"/>
  <polygon class="cls-2" points="279.26 8.21 274.16 8.19 278.27 2.44 283.39 2.44 279.26 8.21"/>
  <polygon class="cls-2" points="272.59 8.21 267.5 8.19 271.6 2.44 276.73 2.44 272.59 8.21"/>
  <polygon class="cls-2" points="265.93 8.21 260.83 8.19 264.94 2.44 270.07 2.44 265.93 8.21"/>
  <polygon class="cls-2" points="259.55 8.21 254.45 8.19 258.56 2.44 263.68 2.44 259.55 8.21"/>
  <polygon class="cls-2" points="253.19 8.21 248.09 8.19 252.2 2.44 257.33 2.44 253.19 8.21"/>
  <polygon class="cls-2" points="246.81 8.21 241.71 8.19 245.82 2.44 250.94 2.44 246.81 8.21"/>
  <polygon class="cls-2" points="240.42 8.21 235.33 8.19 239.44 2.44 244.56 2.44 240.42 8.21"/>
  <polygon class="cls-2" points="234.04 8.21 228.95 8.19 233.05 2.44 238.18 2.44 234.04 8.21"/>
  <polygon class="cls-2" points="227.48 8.21 222.38 8.19 226.49 2.44 231.62 2.44 227.48 8.21"/>
</svg>
