<!DOCTYPE svg PUBLIC "-//W3C//DTD SVG 1.1//EN" "http://www.w3.org/Graphics/SVG/1.1/DTD/svg11.dtd">
<!-- Uploaded to: SVG Repo, www.svgrepo.com, Transformed by: SVG Repo Mixer Tools -->
<svg fill="#fee290" height="800px" width="800px" version="1.1" id="Layer_1" xmlns="http://www.w3.org/2000/svg" xmlns:xlink="http://www.w3.org/1999/xlink" viewBox="0 0 512 512" xml:space="preserve" stroke="#fee290" transform="matrix(1, 0, 0, 1, 0, 0)">
<g id="SVGRepo_bgCarrier" stroke-width="0"/>
<g id="SVGRepo_tracerCarrier" stroke-linecap="round" stroke-linejoin="round"/>
<g id="SVGRepo_iconCarrier"> <g> <g> <path d="M181.598,336.545c-7.861-13.616-22.518-22.074-38.252-22.074c-7.714,0-15.336,2.046-22.042,5.918 c-10.21,5.895-17.513,15.412-20.564,26.801c-3.051,11.388-1.485,23.283,4.409,33.492c7.861,13.615,22.517,22.074,38.252,22.074 c7.713,0,15.336-2.046,22.042-5.918C186.52,384.669,193.767,357.623,181.598,336.545z M150.256,370.535 c-2.125,1.227-4.431,1.849-6.856,1.849c-4.917,0-9.496-2.639-11.949-6.888c-1.839-3.185-2.326-6.894-1.375-10.446 c0.952-3.551,3.229-6.521,6.413-8.359c2.125-1.227,4.432-1.85,6.856-1.85c4.917,0,9.496,2.639,11.949,6.888 C159.09,358.304,156.831,366.74,150.256,370.535z"/> </g> </g> <g> <g> <path d="M475.736,67.078l-104.979,60.61l10.54,18.255l-27.692,15.987l-10.54-18.255l-129.539,74.789l-30.877-53.479 l-24.175-41.871l-26.302,15.186l24.175,41.871l-100.15,57.822l30.877,53.479L0,341.745l36.264,62.812l26.453-15.273 c1.617,4.246,3.578,8.42,5.921,12.478c15.37,26.621,44.031,43.16,74.801,43.16c15.07,0,29.967-4.002,43.082-11.573 c41.209-23.792,55.378-76.673,31.586-117.881c-2.324-4.027-4.959-7.819-7.853-11.362l13.235-7.641l25.005,43.309l26.302-15.186 l-25.005-43.309l129.539-74.789l-10.54-18.255l27.692-15.987l10.54,18.254L512,129.89L475.736,67.078z M57.093,357.463 l-9.712,5.607l-5.893-10.208l17.024-9.829C57.642,347.758,57.16,352.586,57.093,357.463z M171.533,206.474l15.691,27.177 l-64.436,37.202l-9.412,5.433l-15.691-27.177L171.533,206.474z M171.336,407.046c-8.503,4.909-18.15,7.505-27.896,7.505 c-19.953,0-38.536-10.719-48.498-27.974c-4.253-7.367-6.625-15.311-7.283-23.275c-0.017-0.213-0.039-0.425-0.055-0.637 c-0.06-0.842-0.104-1.684-0.126-2.526c0-0.014,0-0.027,0-0.042c-0.021-0.851-0.021-1.702-0.003-2.551 c0.002-0.085,0.004-0.171,0.006-0.256c0.135-5.333,1.029-10.614,2.641-15.672c0.011-0.036,0.023-0.072,0.034-0.108 c0.26-0.81,0.539-1.615,0.835-2.414c0.011-0.031,0.022-0.063,0.034-0.094c0.3-0.802,0.619-1.596,0.955-2.383 c0.055-0.128,0.113-0.254,0.169-0.382c0.255-0.586,0.522-1.168,0.798-1.746c0.134-0.279,0.269-0.558,0.407-0.835 c0.21-0.421,0.427-0.838,0.648-1.254c0.272-0.513,0.552-1.023,0.84-1.529c0.219-0.385,0.437-0.77,0.666-1.15 c0.266-0.441,0.543-0.876,0.821-1.31c0.123-0.193,0.247-0.386,0.373-0.578c0.303-0.46,0.609-0.916,0.925-1.367 c0.06-0.086,0.122-0.17,0.183-0.255c1.07-1.508,2.216-2.965,3.435-4.365c0.085-0.098,0.171-0.195,0.257-0.294 c1.17-1.325,2.41-2.596,3.71-3.812c0.168-0.157,0.334-0.316,0.505-0.472c0.359-0.328,0.726-0.651,1.095-0.97 c0.271-0.234,0.546-0.464,0.822-0.693c0.323-0.269,0.645-0.541,0.975-0.803c0.581-0.461,1.173-0.912,1.777-1.352 c0.24-0.175,0.485-0.343,0.728-0.515c0.476-0.335,0.956-0.665,1.445-0.988c0.227-0.15,0.455-0.3,0.684-0.447 c0.709-0.453,1.425-0.897,2.161-1.322l0.009-0.005c0.334-0.192,0.673-0.376,1.01-0.562c0.204-0.112,0.406-0.229,0.611-0.339 c0.31-0.165,0.625-0.322,0.936-0.481c0.233-0.118,0.464-0.242,0.698-0.357c0.256-0.127,0.515-0.244,0.773-0.365 c0.296-0.14,0.59-0.284,0.888-0.419c0.173-0.078,0.349-0.15,0.523-0.227c0.386-0.17,0.77-0.341,1.16-0.502 c0.066-0.027,0.133-0.052,0.198-0.079c6.684-2.735,13.846-4.163,21.065-4.163c8.034,0,16.044,1.775,23.343,5.097 c0.252,0.115,0.502,0.237,0.752,0.356c0.3,0.142,0.598,0.284,0.896,0.431c0.45,0.224,0.896,0.453,1.339,0.688 c0.059,0.031,0.116,0.062,0.175,0.093c9.041,4.85,16.741,12.157,22.019,21.299C207.223,357.357,198.04,391.627,171.336,407.046z M185.504,283.324c-0.452-0.251-0.913-0.482-1.369-0.725c-0.092-0.05-0.184-0.097-0.275-0.146 c-0.73-0.386-1.461-0.767-2.201-1.132c-0.545-0.27-1.096-0.526-1.647-0.786c-0.434-0.202-0.867-0.411-1.304-0.606 c-0.963-0.433-1.936-0.846-2.915-1.244c-0.099-0.041-0.199-0.079-0.299-0.118c-1.062-0.427-2.132-0.833-3.211-1.219l30.127-17.394 l5.893,10.208L185.504,283.324z M234.605,254.975l-5.893-10.208l103.236-59.604l5.893,10.208L234.605,254.975z M418.137,149.013 l-5.893-10.208l52.374-30.239l5.893,10.208L418.137,149.013z"/> </g> </g> </g>
</svg>