<!DOCTYPE svg PUBLIC "-//W3C//DTD SVG 1.1//EN" "http://www.w3.org/Graphics/SVG/1.1/DTD/svg11.dtd">
<!-- Uploaded to: SVG Repo, www.svgrepo.com, Transformed by: SVG Repo Mixer Tools -->
<svg fill="#FF6188" height="800px" width="800px" version="1.1" id="Layer_1" xmlns="http://www.w3.org/2000/svg" xmlns:xlink="http://www.w3.org/1999/xlink" viewBox="0 0 512 512" xml:space="preserve" stroke="#FF6188">
<g id="SVGRepo_bgCarrier" stroke-width="0"/>
<g id="SVGRepo_tracerCarrier" stroke-linecap="round" stroke-linejoin="round"/>
<g id="SVGRepo_iconCarrier"> <g> <g> <polygon points="475.736,67.079 405.8,104.301 442.064,167.113 512,129.891 "/> </g> </g> <g> <g> <path d="M368.79,188.233l37.798-21.823l-15.186-26.303l-37.798,21.823l-10.54-18.255l-116.572,67.304l-54.829-94.966 l-26.302,15.186l23.953,41.487L56.198,237.992l30.877,53.479L0,341.745l36.264,62.812l26.453-15.273 c1.617,4.246,3.578,8.42,5.921,12.478c15.37,26.621,44.031,43.16,74.801,43.16c15.07,0,29.967-4.002,43.082-11.573 c41.209-23.792,55.378-76.673,31.586-117.881c-2.324-4.027-4.959-7.819-7.853-11.362l26.2-15.127l25.225,43.692l26.302-15.186 l-25.225-43.692l116.573-67.304L368.79,188.233z M159.842,387.139c-15.755,9.095-35.899,3.698-44.995-12.056 c-9.095-15.755-3.698-35.899,12.056-44.995c15.755-9.096,35.899-3.698,44.995,12.056S175.597,378.044,159.842,387.139z"/> </g> </g> </g>
</svg>