<?xml version="1.0" encoding="UTF-8"?>
<svg id="Layer_1" xmlns="http://www.w3.org/2000/svg" version="1.1" viewBox="0 0 411.7 710.5">
  <!-- Generator: Adobe Illustrator 29.0.1, SVG Export Plug-In . SVG Version: 2.1.0 Build 192)  -->
  <defs>
    <style>
      .st0, .st1 {
        fill: #69cad4;
      }

      .st2 {
        fill: none;
        isolation: isolate;
        opacity: .8;
        stroke-width: 4px;
      }

      .st2, .st1 {
        stroke: #69cad4;
        stroke-miterlimit: 10;
      }

      .st1 {
        fill-opacity: .8;
        stroke-width: 2px;
      }
    </style>
  </defs>
  <g id="Layer_2">
    <path class="st1" d="M408.8,182.3V20.7h-128.1L260.5.5H.8s0,195.1,0,195.1l17.1,16.7v301.8l-17.1,17.4v150.4l26.8,28.2h113.4l15.1-17.2h102.5l17.1,17.2h133.2v-123.1l-14.2-14.5v-185.1l14.2-14.2v-160.7"/>
    <polygon class="st0" points="275.6 .5 408.8 .5 408.8 12.9 287.2 12.9 275.6 .5"/>
    <polygon class="st0" points=".8 210.2 10.1 220.3 10.1 501.9 .8 512 .8 210.2"/>
    <polygon class="st0" points="152.7 710.1 161.6 701 253.9 701 263.4 710.1 152.7 710.1"/>
    <polygon class="st0" points="408.1 385.9 398.2 395.8 398.2 389.1 408.1 379.2 408.1 385.9"/>
    <polygon class="st0" points="408.1 397.9 398.2 407.8 398.2 401.1 408.1 391.2 408.1 397.9"/>
    <polygon class="st0" points="408.1 409.9 398.2 419.8 398.2 413.1 408.1 403.2 408.1 409.9"/>
    <polygon class="st0" points="408.1 421.8 398.2 431.8 398.2 425.1 408.1 415.1 408.1 421.8"/>
    <polygon class="st0" points="408.1 433.8 398.2 443.8 398.2 437.1 408.1 427.1 408.1 433.8"/>
    <polygon class="st0" points="408.1 445.8 398.2 455.7 398.2 449 408.1 439.1 408.1 445.8"/>
    <polygon class="st0" points="408.1 457.8 398.2 467.7 398.2 461 408.1 451.1 408.1 457.8"/>
    <polygon class="st0" points="408.1 469.8 398.2 479.7 398.2 473 408.1 463.1 408.1 469.8"/>
    <polygon class="st0" points="408.1 481.7 398.2 491.7 398.2 485 408.1 475 408.1 481.7"/>
    <polygon class="st0" points="408.1 493.7 398.2 503.6 398.2 497 408.1 487 408.1 493.7"/>
    <polygon class="st0" points="408.1 505.7 398.2 515.6 398.2 508.9 408.1 499 408.1 505.7"/>
    <polygon class="st0" points="408.1 517.7 398.2 527.6 398.2 520.9 408.1 511 408.1 517.7"/>
    <polygon class="st0" points="408.1 529.7 398.2 539.6 398.2 532.9 408.1 523 408.1 529.7"/>
    <polygon class="st0" points="408.1 541.6 398.2 551.6 398.2 544.9 408.1 534.9 408.1 541.6"/>
    <polygon class="st0" points="408.1 553.6 398.2 563.5 398.2 556.8 408.1 546.9 408.1 553.6"/>
    <circle class="st0" cx="408.8" cy="183.3" r="1.6"/>
    <circle class="st0" cx="408.8" cy="211.6" r="1.6"/>
    <polyline class="st2" points="66 11.1 11.1 11.1 11.1 80.8"/>
  </g>
  <g id="Layer_4">
    <polyline class="st2" points="346.3 702 401.2 702 401.2 652.3"/>
    <line class="st2" x1="11.1" y1="533.2" x2="11.1" y2="675.2"/>
  </g>
</svg>