<?xml version="1.0" ?><!-- Uploaded to: SVG Repo, www.svgrepo.com, Generator: SVG Repo Mixer Tools -->
<svg width="800px" height="800px" viewBox="0 0 64 64" data-name="Layer 1" id="Layer_1" xmlns="http://www.w3.org/2000/svg"><defs><style>.cls-1{fill:#65c8d0;}.cls-2{fill:#fcdd7c;}.cls-3{fill:#e7685d;}</style></defs><path class="cls-1" d="M32,54A22,22,0,0,0,54,32h6A28,28,0,0,1,32,60"/><path class="cls-1" d="M32,10A22,22,0,0,0,10,32H4A28,28,0,0,1,32,4"/><polygon class="cls-2" points="23 50 32 33 18 33 34 18 46 18 30 29 42 29 23 50"/><polygon class="cls-3" points="32 12 32 2 42 7 32 12"/><polygon class="cls-3" points="32 52 32 62 22 57 32 52"/></svg>