<!DOCTYPE svg PUBLIC "-//W3C//DTD SVG 1.1//EN" "http://www.w3.org/Graphics/SVG/1.1/DTD/svg11.dtd">
<!-- Uploaded to: SVG Repo, www.svgrepo.com, Transformed by: SVG Repo Mixer Tools -->
<svg fill="#78DCE8" version="1.1" id="Layer_1" xmlns="http://www.w3.org/2000/svg" xmlns:xlink="http://www.w3.org/1999/xlink" viewBox="0 0 512.001 512.001" xml:space="preserve" width="800px" height="800px" stroke="#78DCE8">
<g id="SVGRepo_bgCarrier" stroke-width="0"/>
<g id="SVGRepo_tracerCarrier" stroke-linecap="round" stroke-linejoin="round"/>
<g id="SVGRepo_iconCarrier"> <g> <g> <path d="M512.001,108.624l-27.022-27.022l7.585-7.585l-21.476-21.476l-7.585,7.585l-27.022-27.021l-39.001,39l-7.585-7.585 l-21.476,21.476l7.585,7.585l-35.596,35.596l-7.585-7.585l-21.476,21.476l7.585,7.585l-68.816,68.815l-38.229-38.228 L78.553,314.573l21.476,21.476l111.858-111.857l5.668,5.668l-61.299,61.298l-61.296,61.299l-15.999,15.999 c-3.41-8.131-4.148-17.313-1.807-26.085l3.913-14.659L7.832,308.09l-3.921,14.686c-10.667,39.957,0.855,82.926,30.067,112.139 l10.739,10.738l53.597-53.596l18.123-18.123l12.456,12.456l-60.982,60.982l21.476,21.476l60.982-60.982l71.03,71.03l82.775-82.775 l-28.749-28.749l39.822-39.822l9.621,9.621l21.476-21.476l-9.621-9.621l-11.084-11.084l68.815-68.815l7.585,7.585l21.476-21.476 l-7.585-7.585l35.596-35.596l7.585,7.585l21.476-21.476l-7.585-7.585L512.001,108.624z M45.683,401.734 c-11.327-16.347-16.66-36.245-15.03-56.086l14.843,3.977c-0.636,14.541,3.233,28.991,11.043,41.253L45.683,401.734z M397.481,115.058l5.545,5.545l-35.596,35.596l-5.545-5.545L397.481,115.058z M340.409,172.13l5.545,5.545l-68.815,68.815 l-5.545-5.545L340.409,172.13z M221.397,435.942l-83.483-83.486l39.822-39.822l76.211,76.211l7.272,7.273L221.397,435.942z M253.947,345.894l-36.059-36.059l-18.677-18.677l39.822-39.822l27.367,27.367l27.367,27.367L253.947,345.894z M304.161,273.512 l-5.546-5.546l68.815-68.815l5.546,5.546L304.161,273.512z M394.452,183.221l-5.546-5.546l35.596-35.596l5.546,5.546 L394.452,183.221z M424.503,99.128l-5.546-5.546l17.525-17.525l5.546,5.546L424.503,99.128z M451.524,126.149l-5.546-5.546 l17.525-17.525l5.546,5.546L451.524,126.149z"/> </g> </g> <g> <g> <rect x="233.349" y="283.442" transform="matrix(0.7071 -0.7071 0.7071 0.7071 -138.9684 261.7572)" width="26.27" height="30.372"/> </g> </g> </g>
</svg>