<?xml version="1.0" encoding="iso-8859-1"?>
<!-- Uploaded to: SVG Repo, www.svgrepo.com, Generator: SVG Repo Mixer Tools -->
<svg height="800px" width="800px" version="1.1" id="Layer_1" xmlns="http://www.w3.org/2000/svg" xmlns:xlink="http://www.w3.org/1999/xlink" 
	 viewBox="0 0 512 512" xml:space="preserve">
<g>
	<path style="fill:#4D4D4D;" d="M479.277,20.444c8.01,8.021,12.02,18.532,12.02,29.031c0,10.353-3.887,20.683-11.66,28.659
		l-58.051-58.051C437.64,4.414,463.37,4.537,479.277,20.444z"/>
	<path style="fill:#4D4D4D;" d="M400.092,229.341c5.881,5.881,5.881,15.423,0,21.314c-5.892,5.881-15.434,5.881-21.314,0
		L365,236.878l-78.825-78.825c-5.881-5.881-5.881-15.423,0-21.303c2.952-2.952,6.804-4.416,10.657-4.416
		c3.864,0,7.717,1.465,10.657,4.416l56.778,56.767L400.092,229.341z"/>
</g>
<path style="fill:#B27214;" d="M479.638,78.135c-0.113,0.124-0.237,0.248-0.361,0.372l-115.01,115.01l-19.039-19.027l-39.024-39.024
	l115.01-115.021c0.124-0.124,0.248-0.248,0.372-0.36l37.74,37.74L479.638,78.135z"/>
<path style="fill:#995C0D;" d="M479.638,78.135c-0.113,0.124-0.237,0.248-0.361,0.372l-115.01,115.01l-19.039-19.027l-1.284-1.284
	l115.01-115.021c0.124-0.124,0.248-0.248,0.372-0.36L479.638,78.135z"/>
<g>
	<path style="fill:#F95428;" d="M65.202,459.079c10.173,10.173,10.173,26.677,0,36.85c-5.092,5.092-11.761,7.638-18.43,7.638
		c-6.68,0-13.35-2.546-18.43-7.638c-10.184-10.173-10.184-26.677,0-36.85l18.43-18.43L65.202,459.079z"/>
	<path style="fill:#F95428;" d="M317.381,284.508l-78.408,78.397c-53.455,53.444-133.282,70.567-203.94,43.733l53.77-53.77
		c0,0-3.56,21.776,21.776,21.776c45.817,0,23.038-54.075,96.883-54.075c70.387,0,106.662-32.985,109.906-36.072L317.381,284.508z"/>
</g>
<path style="fill:#CCCCCC;" d="M365,236.878l-15.208,15.208l-32.411,32.422l-0.011-0.011c-3.244,3.087-39.519,36.072-109.906,36.072
	c-73.846,0-51.067,54.075-96.883,54.075c-25.336,0-21.776-21.776-21.776-21.776l180.958-180.969l15.13-15.13l1.284,1.284
	L365,236.878z"/>
<path style="fill:#B3B3B3;" d="M365,236.878l-15.208,15.208l-78.825-78.825c-0.439-0.439-0.834-0.89-1.205-1.363l15.13-15.13
	l1.284,1.284L365,236.878z"/>
<g>
	<path style="fill:#333333;" d="M485.249,14.476c-19.301-19.301-50.705-19.301-70.006,0L304.515,125.204
		c-8.24-2.836-17.747-0.998-24.312,5.569c-6.564,6.566-8.402,16.071-5.566,24.311L29.056,400.664
		c-2.027,2.027-2.887,4.943-2.287,7.745c0.602,2.803,2.582,5.11,5.262,6.127c23.08,8.765,47.13,13.022,70.999,13.022
		c52.286,0,103.672-20.436,141.914-58.678L365,248.826l7.803,7.802c4.585,4.585,10.608,6.878,16.63,6.878
		c6.023,0,12.045-2.293,16.63-6.878c9.17-9.17,9.17-24.091,0-33.26l-29.849-29.849L485.25,84.482
		C504.549,65.181,504.549,33.776,485.249,14.476z M473.301,26.424c10.512,10.513,12.322,26.473,5.448,38.872l-44.321-44.32
		C446.828,14.103,462.788,15.912,473.301,26.424z M232.995,356.931c-47.856,47.857-118.18,65.258-182.38,46.072l33.171-33.171
		c0.72,1.258,1.569,2.503,2.59,3.704c5.388,6.34,13.531,9.554,24.203,9.554c24.754,0,33.816-13.848,41.812-26.065
		c9.427-14.404,18.331-28.009,55.072-28.009c25.083,0,46.006-4.012,62.893-9.446L232.995,356.931z M311.636,278.29L311.636,278.29
		c-0.338,0.338-34.632,33.828-104.175,33.828c-20.155,0-35.721,3.84-47.586,11.741c-10.592,7.053-16.453,16.011-21.626,23.914
		c-7.517,11.486-12.055,18.42-27.671,18.42c-3.737,0-8.725-0.613-11.269-3.532c-1.601-1.837-2.076-4.343-2.189-6.163
		l187.774-187.775l68.155,68.155L311.636,278.29z M394.113,244.679c-2.582,2.581-6.782,2.581-9.364,0l-92.596-92.597
		c-2.582-2.582-2.582-6.782,0-9.364c1.291-1.291,2.986-1.937,4.682-1.937s3.391,0.646,4.682,1.937l92.597,92.597
		C396.694,237.897,396.694,242.098,394.113,244.679z M318.156,135.461l103.43-103.43l46.109,46.108l-103.43,103.43L318.156,135.461z
		"/>
	<path style="fill:#333333;" d="M276.967,194.514l-82.238,82.238c-3.3,3.3-3.3,8.65,0,11.948c1.649,1.649,3.812,2.475,5.974,2.475
		c2.162,0,4.325-0.825,5.974-2.475l82.238-82.238c3.3-3.3,3.3-8.65,0-11.948C285.616,191.214,280.266,191.214,276.967,194.514z"/>
	<path style="fill:#333333;" d="M52.744,434.672c-1.584-1.585-3.733-2.475-5.974-2.475s-4.39,0.89-5.974,2.475l-18.429,18.429
		c-13.456,13.456-13.456,35.35,0,48.807C29.095,508.636,37.932,512,46.77,512s17.674-3.364,24.403-10.092
		c13.456-13.456,13.456-35.35,0-48.807L52.744,434.672z M59.224,489.959c-6.867,6.867-18.042,6.866-24.909,0
		c-6.867-6.867-6.867-18.042,0-24.909l12.455-12.455l12.454,12.455C66.091,471.918,66.091,483.091,59.224,489.959z"/>
	<circle style="fill:#333333;" cx="370.263" cy="129.463" r="8.449"/>
	<circle style="fill:#333333;" cx="417.578" cy="82.146" r="8.449"/>
</g>
</svg>