<!DOCTYPE svg PUBLIC "-//W3C//DTD SVG 1.1//EN" "http://www.w3.org/Graphics/SVG/1.1/DTD/svg11.dtd">
<!-- Uploaded to: SVG Repo, www.svgrepo.com, Transformed by: SVG Repo Mixer Tools -->
<svg fill="#AB9DF2" height="800px" width="800px" version="1.1" id="Layer_1" xmlns="http://www.w3.org/2000/svg" xmlns:xlink="http://www.w3.org/1999/xlink" viewBox="0 0 512.001 512.001" xml:space="preserve">
<g id="SVGRepo_bgCarrier" stroke-width="0"/>
<g id="SVGRepo_tracerCarrier" stroke-linecap="round" stroke-linejoin="round"/>
<g id="SVGRepo_iconCarrier"> <g> <g> <path d="M512.001,108.627l-27.022-27.022l-39.001,39l-21.476-21.476l39.001-39.001l-27.022-27.022L397.48,72.107l-14.349-14.349 l-21.476,21.476l14.349,14.349l-35.596,35.596l-14.349-14.349l-21.476,21.476l14.349,14.349l-68.815,68.815l-11.084-11.084 l-34.304-34.304L78.554,300.257l21.476,21.476l104.699-104.699l12.828,12.828l-39.822,39.822L156.26,291.16L105.7,341.719 l-10.739,10.739l-15.999,15.999c-3.411-8.131-4.149-17.313-1.807-26.086l3.912-14.659L7.831,308.091l-3.92,14.686 c-10.667,39.957,0.855,82.927,30.068,112.139l10.739,10.739l10.739-10.739l42.86-42.86l18.122-18.122l12.455,12.455 l-60.982,60.982l21.476,21.476l60.982-60.982l71.03,71.03l82.774-82.774l-28.749-28.749l39.822-39.822l14.374,14.374 l21.476-21.476l-14.374-14.374l-11.084-11.084l68.815-68.815l14.349,14.349l21.476-21.476L415.928,204.7l35.596-35.596 l14.349,14.349l21.476-21.476L473,147.628L512.001,108.627z M246.115,320.467l-21.476-21.476l22.04-22.04l21.476,21.476 L246.115,320.467z M298.614,267.967l-21.476-21.476l68.815-68.815l21.476,21.476L298.614,267.967z M388.905,177.677 l-21.476-21.476l35.596-35.596l21.476,21.476L388.905,177.677z"/> </g> </g> </g>
</svg>