<!DOCTYPE svg PUBLIC "-//W3C//DTD SVG 1.1//EN" "http://www.w3.org/Graphics/SVG/1.1/DTD/svg11.dtd">
<!-- Uploaded to: SVG Repo, www.svgrepo.com, Transformed by: SVG Repo Mixer Tools -->
<svg fill="#FFD866" height="800px" width="800px" version="1.1" id="Layer_1" xmlns="http://www.w3.org/2000/svg" xmlns:xlink="http://www.w3.org/1999/xlink" viewBox="0 0 512 512" xml:space="preserve">
<g id="SVGRepo_bgCarrier" stroke-width="0"/>
<g id="SVGRepo_tracerCarrier" stroke-linecap="round" stroke-linejoin="round"/>
<g id="SVGRepo_iconCarrier"> <g> <g> <path d="M503.929,8.038c-3.652-3.652-10.265-8.004-21.033-8.004c-26.149,0-63.832,26.405-92.344,52.605l68.791,68.791 c17.375-18.803,31.699-38.129,40.977-55.44C514.573,39.395,515.788,19.897,503.929,8.038z"/> </g> </g> <g> <g> <polygon points="298.139,283.068 228.898,213.827 192.087,250.637 143.403,239.336 102.317,280.422 132.31,310.414 89.769,352.954 41.086,341.654 0,382.74 29.992,412.731 51.503,434.243 77.723,460.462 99.233,481.974 129.226,511.966 170.312,470.88 159.011,422.197 201.552,379.656 231.544,409.648 272.63,368.562 261.329,319.879 "/> </g> </g> <g> <g> <polygon points="438.048,143.16 368.807,73.918 326.511,116.214 264.85,101.901 212.423,154.328 357.638,299.543 410.065,247.116 395.752,185.455 "/> </g> </g> </g>
</svg>